<?xml version="1.0" standalone="no"?>
<!DOCTYPE svg PUBLIC "-//W3C//DTD SVG 20010904//EN"
 "http://www.w3.org/TR/2001/REC-SVG-20010904/DTD/svg10.dtd">
<svg version="1.0" xmlns="http://www.w3.org/2000/svg"
 width="80.000000pt" height="80.000000pt" viewBox="0 0 80.000000 80.000000"
 preserveAspectRatio="xMidYMid meet">
<metadata>
Created by potrace 1.11, written by Peter Selinger 2001-2013
</metadata>
<g transform="translate(0.000000,80.000000) scale(0.100000,-0.100000)"
fill="#000000" stroke="none">
<path d="M306 789 c-62 -15 -153 -68 -197 -116 -145 -157 -141 -412 9 -556
l29 -28 -11 50 c-7 38 -7 53 3 65 17 20 55 21 71 1 12 -14 50 -21 50 -10 0 17
-35 54 -55 59 -17 4 -31 -1 -49 -19 -14 -14 -32 -25 -40 -25 -24 0 -48 31 -42
54 3 12 8 35 12 51 9 42 22 55 55 55 31 0 53 -28 43 -54 -4 -11 0 -16 15 -16
23 0 20 17 -10 61 -25 36 -39 107 -30 154 22 118 120 194 249 195 104 0 183
-46 227 -133 37 -75 32 -159 -15 -227 -24 -35 -32 -83 -13 -76 8 3 21 6 28 6
8 0 20 12 27 28 17 36 71 44 88 12 6 -11 8 -25 5 -30 -3 -5 -3 -21 1 -36 l7
-26 15 33 c11 23 16 66 16 134 1 134 -23 196 -108 280 -107 106 -241 146 -380
114z"/>
<path d="M460 583 c-38 -19 -60 -67 -52 -109 14 -74 117 -101 173 -45 39 39
40 89 2 131 -36 38 -77 46 -123 23z"/>
<path d="M250 530 c-11 -11 -20 -30 -20 -43 0 -28 39 -67 66 -67 27 0 64 40
64 68 0 29 -34 62 -65 62 -14 0 -34 -9 -45 -20z"/>
<path d="M470 315 l-55 -34 -55 30 c-51 28 -56 28 -67 12 -20 -27 -16 -38 24
-57 l37 -18 -24 -18 c-23 -17 -23 -19 -7 -44 l17 -26 39 26 39 25 43 -21 c41
-21 43 -21 56 -4 18 25 17 31 -13 47 l-27 14 42 23 c46 27 48 30 24 59 l-18
21 -55 -35z"/>
<path d="M607 230 c-16 -5 -35 -14 -44 -21 -25 -22 22 -33 52 -13 14 9 32 13
41 10 12 -5 15 -2 10 10 -3 8 -6 18 -6 20 0 6 -21 4 -53 -6z"/>
<path d="M718 193 c-23 -4 -28 -10 -28 -32 0 -15 -6 -33 -12 -41 -7 -8 -2 -6
11 5 19 17 69 78 59 74 -2 -1 -15 -4 -30 -6z"/>
<path d="M270 150 c-16 -4 -26 -14 -28 -29 -2 -12 -17 -30 -33 -40 l-30 -19
43 -20 c104 -50 234 -54 336 -11 54 22 54 22 32 39 -17 13 -22 24 -18 43 4 22
0 28 -23 36 -22 7 -36 5 -65 -10 -48 -24 -104 -24 -152 -1 -23 12 -46 16 -62
12z"/>
</g>
</svg>
